PathFileType	4	(X/Y/Z)	OpenSim_Sub04_CSStiffKnee_Accel.trc
DataRate	CameraRate	NumFrames	NumMarkers	Units	OrigDataRate	OrigDataStartFrame	OrigNumFrames
100	100	31	8	m	100	2780	7413
Frame#	Time	torso_imu_offset_imu	pelvis_imu_offset_imu	tibia_r_imu_offset_imu	femur_r_imu_offset_imu	tibia_l_imu_offset_imu	femur_l_imu_offset_imu	toes_r_imu_offset_imu	toes_l_imu_offset_imu
				X1	Y1	Z1	X2	Y2	Z2	X3	Y3	Z3	X4	Y4	Z4	X5	Y5	Z5	X6	Y6	Z6	X7	Y7	Z7	X8		Y8	Z8	

2780	27.79000000	-11.73486658	0.48780656	9.13220044	10.33788510	0.88331702	7.80142974	11.19218567	6.12073628	0.57941817	10.90898239	-0.88852288	2.06787424	10.62583080	-2.09197466	2.52329089	12.20384003	-5.12158330	-2.12616826	6.50817770	-0.49787059	8.47571712	10.02174571	3.86520302	11.51479740
2781	27.80000000	-11.14168808	0.61922860	8.52304905	9.87209430	1.07797861	7.89112083	11.25978711	5.75231017	0.45815257	12.18604000	-2.48541755	1.57064712	10.51108053	-2.03328572	1.60936519	11.60229477	-4.48193497	-1.98858133	6.15956138	-0.43334115	8.59398539	8.87074856	6.31638255	12.11373659
2782	27.81000000	-10.85200005	0.70550706	8.00680474	9.34345822	1.23219938	7.83234521	11.37953101	4.84473718	0.14143368	13.52647829	-3.74286537	1.12822201	10.10191109	-3.11354090	1.44319694	10.77103761	-3.75297204	-1.52762061	6.24985734	-0.89008997	8.38593942	8.82840849	6.22819647	11.40198528
2783	27.82000000	-10.70240314	0.78583207	7.51157522	8.88979307	1.47848510	7.59166860	11.10162799	3.86065751	-0.12343483	12.82825006	-4.85083904	0.34839392	9.32008002	-4.99014524	1.19710378	10.50859426	-3.12061205	-1.41780596	6.28306487	-1.32685791	7.99427907	8.63526702	6.37764549	11.55851823
2784	27.83000000	-10.60054967	0.81367054	7.06961517	8.69247511	1.85049009	7.24176622	10.26902178	3.95668930	-0.57945073	11.42751337	-5.24840486	-0.22927084	7.91718359	-7.22382246	-0.13877629	10.44692320	-2.80489666	-1.55172825	6.29226025	-1.40838683	7.80387335	7.27565270	4.17085279	11.06365055
2785	27.84000000	-10.58731795	0.89689730	6.91233813	8.66250764	2.22122991	6.88634388	9.13423440	5.07364619	-1.04290043	11.18636846	-5.05852379	-0.12789757	6.68166189	-8.80506117	-1.09550916	10.24527814	-2.64191751	-1.19279116	6.52477635	-1.45218325	7.58764034	10.32267391	3.10779771	8.93463398
2786	27.85000000	-10.60035242	1.02064934	6.89073057	8.77838194	2.50470815	6.56889886	8.42168996	6.50783750	-0.92230121	10.19834677	-4.61946277	0.06951354	5.75196978	-9.71315701	-1.67182736	10.07437759	-2.61885887	-1.66973147	6.56455052	-1.42946848	7.48332954	5.71887793	5.37250123	10.28310443
2787	27.86000000	-10.42941967	1.07348534	6.74574395	8.94021713	2.60704441	6.34302755	8.43894515	7.33490141	-0.94622904	9.21099911	-4.15323258	0.13272234	4.48185118	-11.00022203	-3.40361316	9.55314074	-2.91362448	-1.89718387	6.20559712	-1.50844345	7.74827968	-3.15593331	11.27560249	20.61835511
2788	27.87000000	-10.16171462	1.05965812	6.96233491	9.00630004	2.54347516	6.17562060	8.94191358	7.07536896	-1.06121847	8.74130135	-3.73407525	-0.08849534	3.26845335	-12.08329090	-4.50955800	9.12120912	-3.49128402	-1.73146552	6.56649623	-1.56421933	7.46388621	-8.15194481	12.43432487	22.17908756
2789	27.88000000	-9.92236657	1.00221004	7.02382709	9.08175092	2.39974085	6.11658798	9.41042962	6.01463403	-1.37311087	8.52840000	-3.44897914	-0.34278612	3.93793618	-8.75054186	-2.12072745	9.15277317	-4.67407242	-2.32011636	6.66264927	-1.50627307	7.34385874	-8.71278769	8.36123380	18.46017653
2790	27.89000000	-9.63161932	0.87519114	7.22217858	9.06622363	2.08994099	6.13702931	9.81171995	4.89670902	-1.51304096	8.69684560	-3.38935674	-0.30765893	4.65335906	-2.01581416	0.01466669	9.61302085	-5.95173332	-2.95157114	6.26622289	-1.50126075	7.71990436	-6.25950132	6.24409568	17.77698288
2791	27.90000000	-9.15347656	0.64526767	7.52431516	8.90196997	1.68772234	6.24859703	10.34103175	3.97005748	-1.30878278	9.02228864	-3.49691046	-0.29215828	4.69835552	1.30766377	0.65522309	9.69602930	-5.69609129	-3.11220386	6.29702998	-1.56184812	7.72867018	-3.63276979	6.00328653	16.64112974
2792	27.91000000	-8.51520039	0.55690826	7.23281075	8.55017833	1.32164388	6.35791771	10.74929529	3.17308299	-0.90261955	9.34222242	-3.58722403	-0.34107512	5.85552345	0.62112434	0.64383970	8.83333427	-3.88314055	-2.74202821	6.35517305	-1.41466738	7.65903697	-0.68798204	5.70886734	15.44580894
2793	27.92000000	-8.04674392	0.57140923	6.90218986	8.10784493	1.01732409	6.31018726	10.63196804	2.75930608	-0.59141708	9.61303068	-3.53333761	-0.15929065	8.33903033	-0.24724375	0.62390114	8.04285900	-2.37769387	-1.81854121	6.10176955	-1.28485374	7.88734885	1.78034704	4.90680876	13.92719876
2794	27.93000000	-7.71712788	0.73804854	6.66061628	7.66741644	0.82709954	6.13053130	10.10552337	2.89321897	-0.26131065	9.80912301	-3.28700190	0.07799443	9.92848068	-0.72868181	0.51451621	7.58495199	-1.83993983	-0.75954284	6.05709586	-1.50239442	7.86066032	3.65133767	4.22622358	12.42597415
2795	27.94000000	-7.49878812	0.89718182	6.42665341	7.20251851	0.70381304	5.89129523	9.66765707	3.15520635	0.31687222	9.81367904	-2.88056955	0.24377381	9.57753957	-1.34659831	0.37237632	7.29876022	-1.80974711	-0.07163021	5.96736742	-1.38565563	7.85272392	4.94620751	3.53556835	11.15280939
2796	27.95000000	-7.48932268	0.93198322	6.28261705	6.68724699	0.61848517	5.68603546	9.39030463	3.30669780	0.95653545	9.57636440	-2.35317469	0.70416806	8.57978352	-1.85875715	0.81174082	7.52561838	-1.92223511	0.36986789	5.74784062	-1.32129421	8.09443636	5.72220975	3.16930496	10.09597587
2797	27.96000000	-7.52679304	0.85321855	6.14798514	6.17012998	0.58132089	5.50114276	9.31688999	3.44328247	1.51774542	9.28492103	-1.92134686	1.15644814	8.16210666	-2.82376425	1.38226836	7.88407193	-2.13295874	0.33228460	6.07507005	-1.21406021	7.88284611	6.29959616	3.00728849	9.30943623
2798	27.97000000	-7.41930786	0.72414824	5.94362857	5.72862617	0.44164290	5.25017191	9.49088869	3.77852203	1.87704098	9.04093755	-1.71828851	1.32736538	8.04540768	-4.09291237	1.65073533	8.41490919	-2.36014680	0.20299652	6.17043123	-0.90026878	7.73812768	6.55161396	2.70751429	8.97031748
2799	27.98000000	-7.28467841	0.66575833	5.81536270	5.35872573	0.41749020	4.91596287	9.31510425	4.01096795	2.14608569	8.73655971	-1.60757426	1.33067853	7.95526973	-4.81651992	1.62543669	8.86716367	-2.46607848	0.21675532	5.84152588	-1.04986907	7.95821719	6.64923141	2.13099807	9.12489503
2800	27.99000000	-7.23399922	0.64363426	5.77578355	5.11346635	0.43829796	4.66098007	8.85387565	3.45091902	2.01903337	8.54166307	-1.57078318	1.24143324	7.89620802	-4.79526872	1.80902791	8.97818846	-2.52145434	0.02113670	5.82055493	-1.20191643	7.91549022	7.25323577	1.32025688	9.60550774
2801	28.00000000	-7.29353773	0.63720290	5.84511377	5.13982539	0.52389874	4.46635751	8.75796222	2.38884260	1.73775504	8.41425044	-1.56856338	1.24272141	7.91258304	-4.17279315	2.25759304	8.86444179	-2.57780205	-0.33713338	5.95431365	-1.25378475	7.71867440	7.89304337	0.93532683	10.21546821
2802	28.01000000	-7.41276964	0.65030594	5.97033485	5.23872571	0.69207197	4.35604044	9.17681723	1.71225025	1.24185339	8.48799753	-1.69390257	1.21244996	7.88629156	-3.28480337	2.76990003	8.54238630	-2.48850006	-0.76409286	5.97467828	-1.10703779	7.86665225	7.91478332	0.92933731	10.44942940
2803	28.02000000	-7.45368692	0.60635127	6.12257254	5.59544903	1.02462234	4.26425266	9.55878618	1.61578675	0.42595001	8.60112587	-1.93467637	1.01438520	7.79916275	-2.86199966	3.16424685	8.12890660	-2.20538806	-1.21229831	6.04540100	-1.14377723	7.80364726	7.54040821	1.13168563	10.25018615
2804	28.03000000	-7.44763698	0.55295516	6.35546298	6.14272320	1.38053858	4.32122045	9.76959302	1.82345186	0.33650507	8.43702648	-2.22477820	0.54540859	7.75172681	-2.64977546	3.23907175	7.68879137	-1.77620661	-1.44687890	6.12452064	-1.47541477	7.58922885	7.21274717	1.61283802	9.85945300
2805	28.04000000	-7.38589128	0.52242764	6.54234212	6.71940156	1.63507269	4.45406443	9.84809465	1.95863816	0.14429753	8.44244108	-2.43357305	0.20919952	7.84986056	-2.51895718	3.20323792	7.40188001	-1.16031249	-1.31823584	5.98595009	-1.52008973	7.74967200	7.26843623	2.02966022	9.65294058
2806	28.05000000	-7.32114906	0.51976577	6.65814302	7.28990168	1.91398840	4.49166869	9.87547524	1.90773050	-0.28978382	8.56225300	-2.52468341	0.25038711	8.19273777	-2.65553382	3.06704480	7.38173398	-0.43690502	-0.95102223	6.23361722	-1.44757406	7.58752851	7.60263436	2.32384159	9.46008215
2807	28.06000000	-7.29219492	0.57970141	6.76861137	7.81102107	2.07720542	4.48547846	9.79613602	1.91146189	-0.22575774	8.54340294	-2.60770150	0.18953521	8.54573340	-2.95829470	2.93362744	7.59907198	0.05635483	-0.47147069	6.20369903	-1.57893013	7.47992657	7.87018221	2.49625838	9.32948291
2808	28.07000000	-7.31046952	0.64348883	6.95400807	8.21409655	2.23143134	4.44220019	9.77881206	1.83442355	-0.17109948	8.42224103	-2.50315695	0.00247219	8.71546367	-3.41077240	2.62483338	7.88099061	0.23795764	-0.10043312	5.86507180	-1.43705385	7.73784795	8.02825499	2.74391591	9.38384288
2809	28.08000000	-7.31410256	0.69052888	7.12360035	8.47067102	2.41024475	4.45614240	9.85199257	1.52368796	0.15144966	8.10038516	-2.46409433	0.03327102	8.91465129	-4.06604345	2.30868240	8.27446543	0.22392085	0.18470209	5.94423396	-1.41417724	7.72055514	8.34746887	3.11123398	9.45029881
2810	28.09000000	-7.35516964	0.74901698	7.20245505	8.55587830	2.50780652	4.45390022	9.67025472	1.10122014	0.30373594	8.34761545	-2.47940287	0.01490276	9.08436509	-4.68274527	1.91828857	8.85275647	0.13501251	0.32517948	6.16136625	-1.37562712	7.58329135	8.83223281	2.85444050	9.31895063
